# xmcd
#
# Track frame offsets: 
#        150
#        18216
#        32335
#        48691
#        71027
#        86464
#        105140
#        128478
#        142732
#        155832
#
# Disc length: 2260 seconds
#
# Revision: 0
# Processed by: cddbd v1.5.2PL0 Copyright (c) Steve Scherf et al.
# Submitted via: ExactAudioCopy v1.0b4
#
DISCID=7108d20a
DTITLE=Downchild Blues Band - Bootleg
DYEAR=1971
DGENRE=Blues, Modern Blues, Electric Blues
TTITLE0=Rock It
TTITLE1=Just A Little Bit
TTITLE2=Down in Virginia
TTITLE3=That's All Right
TTITLE4=Messin' With The Kid
TTITLE5=Don't You Bother My Baby
TTITLE6=Change My Way of Livin'
TTITLE7=You Don't Have To Go
TTITLE8=Next Time You See Me
TTITLE9=I'm Sinkin'
EXTD=
EXTT0=
EXTT1=
EXTT2=
EXTT3=
EXTT4=
EXTT5=
EXTT6=
EXTT7=
EXTT8=
EXTT9=
PLAYORDER=
